<svg data-v-423bf9ae="" xmlns="http://www.w3.org/2000/svg" viewBox="0 0 263 112" class="iconLeft"><!----><defs data-v-423bf9ae=""><linearGradient data-v-423bf9ae="" gradientTransform="rotate(25)" id="d9f20480-ccfb-4cc8-9d1c-7ecd19fd1b4f" x1="0%" y1="0%" x2="100%" y2="0%"><stop data-v-423bf9ae="" offset="0%" style="stop-color: rgb(0, 10, 104); stop-opacity: 1;"></stop><stop data-v-423bf9ae="" offset="100%" style="stop-color: rgb(0, 196, 238); stop-opacity: 1;"></stop></linearGradient></defs><!----><g data-v-423bf9ae="" id="97a4eec6-fb61-473d-9b98-467eae8b32e7" fill="#ffffff" transform="matrix(5.240174759780263,0,0,5.240174759780263,129.4536924722543,17.485684982951653)"><path d="M4.42 2.69L4.42 2.69L4.42 2.69Q3.88 2.63 3.57 2.69L3.57 2.69L3.57 2.69Q3.26 2.76 3.10 2.93L3.10 2.93L3.10 2.93Q2.94 3.11 2.90 3.39L2.90 3.39L2.90 3.39Q2.86 3.67 2.86 4.02L2.86 4.02L2.86 4.07L4.20 4.07L4.05 5.14L2.86 5.14L2.86 10.50L1.54 10.50L1.54 5.14L0.29 5.14L0.29 4.07L1.54 4.07L1.54 4.02L1.54 4.02Q1.54 3.53 1.63 3.16L1.63 3.16L1.63 3.16Q1.72 2.80 1.87 2.53L1.87 2.53L1.87 2.53Q2.02 2.27 2.21 2.09L2.21 2.09L2.21 2.09Q2.41 1.92 2.60 1.81L2.60 1.81L2.60 1.81Q3.07 1.55 3.68 1.54L3.68 1.54L3.68 1.54Q3.88 1.54 4.03 1.55L4.03 1.55L4.03 1.55Q4.17 1.57 4.28 1.60L4.28 1.60L4.49 1.64L4.42 2.69ZM10.04 3.36L11.55 3.36L8.88 10.12L8.88 10.12Q8.57 10.93 8.08 11.56L8.08 11.56L8.08 11.56Q7.87 11.83 7.59 12.09L7.59 12.09L7.59 12.09Q7.31 12.35 6.96 12.54L6.96 12.54L6.96 12.54Q6.61 12.74 6.19 12.87L6.19 12.87L6.19 12.87Q5.77 12.99 5.26 12.99L5.26 12.99L5.26 11.90L5.26 11.90Q6.01 11.90 6.45 11.62L6.45 11.62L6.45 11.62Q6.89 11.34 7.13 10.99L7.13 10.99L7.13 10.99Q7.39 10.60 7.50 10.08L7.50 10.08L4.79 3.36L6.30 3.36L8.20 9.18L10.04 3.36ZM17.07 3.91L16.63 4.89L16.63 4.89Q15.81 4.26 14.90 4.26L14.90 4.26L14.90 4.26Q14.39 4.26 14.09 4.46L14.09 4.46L14.09 4.46Q13.79 4.66 13.79 5.15L13.79 5.15L13.79 5.15Q13.79 5.40 13.91 5.58L13.91 5.58L13.91 5.58Q14.03 5.75 14.22 5.88L14.22 5.88L14.22 5.88Q14.42 6.01 14.67 6.10L14.67 6.10L14.67 6.10Q14.92 6.20 15.20 6.30L15.20 6.30L15.20 6.30Q15.57 6.43 15.95 6.58L15.95 6.58L15.95 6.58Q16.32 6.73 16.63 6.98L16.63 6.98L16.63 6.98Q16.93 7.22 17.12 7.59L17.12 7.59L17.12 7.59Q17.30 7.97 17.30 8.54L17.30 8.54L17.30 8.54Q17.30 9.09 17.10 9.49L17.10 9.49L17.10 9.49Q16.90 9.90 16.55 10.16L16.55 10.16L16.55 10.16Q16.21 10.42 15.77 10.54L15.77 10.54L15.77 10.54Q15.33 10.67 14.87 10.67L14.87 10.67L14.87 10.67Q14.17 10.67 13.50 10.39L13.50 10.39L13.50 10.39Q12.82 10.11 12.35 9.58L12.35 9.58L12.77 8.65L12.77 8.65Q13.22 9.10 13.78 9.35L13.78 9.35L13.78 9.35Q14.35 9.60 14.90 9.60L14.90 9.60L14.90 9.60Q15.43 9.60 15.77 9.39L15.77 9.39L15.77 9.39Q16.11 9.17 16.13 8.67L16.13 8.67L16.13 8.67Q16.13 8.40 16.01 8.20L16.01 8.20L16.01 8.20Q15.89 8.01 15.69 7.86L15.69 7.86L15.69 7.86Q15.50 7.71 15.23 7.61L15.23 7.61L15.23 7.61Q14.97 7.50 14.69 7.39L14.69 7.39L14.69 7.39Q14.32 7.27 13.96 7.11L13.96 7.11L13.96 7.11Q13.59 6.96 13.30 6.72L13.30 6.72L13.30 6.72Q13.01 6.48 12.82 6.12L12.82 6.12L12.82 6.12Q12.64 5.75 12.64 5.22L12.64 5.22L12.64 5.22Q12.64 4.68 12.83 4.29L12.83 4.29L12.83 4.29Q13.02 3.91 13.34 3.66L13.34 3.66L13.34 3.66Q13.66 3.42 14.08 3.30L14.08 3.30L14.08 3.30Q14.50 3.19 14.97 3.19L14.97 3.19L14.97 3.19Q15.54 3.19 16.08 3.38L16.08 3.38L16.08 3.38Q16.62 3.57 17.07 3.91L17.07 3.91ZM22.75 3.19L22.75 3.19L22.75 3.19Q24.15 3.19 24.79 4.02L24.79 4.02L24.79 4.02Q25.44 4.84 25.44 6.37L25.44 6.37L25.44 10.50L24.11 10.50L24.11 6.73L24.11 6.73Q24.11 5.46 23.79 4.86L23.79 4.86L23.79 4.86Q23.46 4.26 22.65 4.26L22.65 4.26L22.65 4.26Q22.09 4.26 21.68 4.47L21.68 4.47L21.68 4.47Q21.27 4.68 20.99 5.06L20.99 5.06L20.99 5.06Q20.71 5.45 20.57 5.99L20.57 5.99L20.57 5.99Q20.43 6.52 20.43 7.18L20.43 7.18L20.43 10.50L19.11 10.50L19.11 1.62L20.43 1.62L20.43 4.49L20.43 4.49Q20.76 3.92 21.41 3.56L21.41 3.56L21.41 3.56Q22.05 3.19 22.75 3.19Z"></path></g><!----><g data-v-423bf9ae="" id="633c8367-5b85-4d69-8b1a-44d8e3847a3d" transform="matrix(1.1111111111111112,0,0,1.1111111111111112,0.5064405107663745,0.44444444444444287)" stroke="none" fill="#ffffff"><path d="M25.092 67.837c-6.047 5.196-11.004 11.726-14.268 18.981-4.717-5.198-7.256-11.966-7.256-18.981a21.46 21.46 0 0 1 3.506-11.729L20.86 35.067a32.327 32.327 0 0 0 5.195-17.532c0-5.32-1.328-10.519-3.867-15.236l-3.021 1.692c2.176 4.235 3.387 8.827 3.387 13.544 0 5.563-1.694 11.001-4.717 15.6L4.054 54.174C1.39 58.162.062 63 .062 67.838.062 85.609 14.451 100 32.105 100c3.627 0 7.135-.604 10.52-1.814.121-1.332.238-2.66.238-3.871 0-11.606-7.011-22.127-17.771-26.478zm.965 23.093a2.782 2.782 0 0 1 0-5.562 2.782 2.782 0 0 1 0 5.562z"></path><path d="M90.143 0c-5.438 0-10.641 2.663-13.781 7.138a15.99 15.99 0 0 0-8.463-2.421c-6.41 0-12.094 3.749-14.633 9.552 2.66-1.569 5.803-2.54 9.067-2.54 3.871 0 7.134 1.089 10.397 3.385 2.783 2.06 4.476 5.202 4.476 8.709v.121c-.122 4.835-1.207 9.912-3.144 14.387-3.992 8.705-11.729 14.753-21.28 16.324l-3.871.847c-.604-1.691-.967-3.507-.967-5.32 0-2.539.238-3.867 1.211-6.166C43.47 47.16 39.722 52.6 38.632 59.13l-11.605 7.134c11.002 4.961 18.137 15.961 18.137 28.053 0 0-.24 3.023-.121 3.023 14.996-7.135 11.971-5.199 24.426-16.204 1.932-1.692 4.471-2.538 7.135-2.538 3.746 0 7.131 1.935 9.066 5.077v-.722c0-2.178 0-2.299-.604-4.355-1.332-3.988-4.717-6.77-8.463-7.98 5.924-9.674 8.219-16.443 9.309-27.687l.363-15.356-.363-11.851c-.119-.364-.119-.726-.119-.968 0-3.99 2.055-7.499 5.561-9.434 2.902-1.569 5.32-2.175 8.584-2.175C96.916.971 93.896 0 90.143 0z"></path></g><!----></svg>