<svg data-v-423bf9ae="" xmlns="http://www.w3.org/2000/svg" viewBox="0 0 59.925604248046874 60" class="icon"><!----><!----><!----><!----><g data-v-423bf9ae="" id="2c6f77dc-6015-41d0-8879-22ba0f020197" transform="matrix(0.6,0,0,0.6,-0.03719951063394333,0)" stroke="none" fill="black"><path d="M25.092 67.837c-6.047 5.196-11.004 11.726-14.268 18.981-4.717-5.198-7.256-11.966-7.256-18.981a21.46 21.46 0 0 1 3.506-11.729L20.86 35.067a32.327 32.327 0 0 0 5.195-17.532c0-5.32-1.328-10.519-3.867-15.236l-3.021 1.692c2.176 4.235 3.387 8.827 3.387 13.544 0 5.563-1.694 11.001-4.717 15.6L4.054 54.174C1.39 58.162.062 63 .062 67.838.062 85.609 14.451 100 32.105 100c3.627 0 7.135-.604 10.52-1.814.121-1.332.238-2.66.238-3.871 0-11.606-7.011-22.127-17.771-26.478zm.965 23.093a2.782 2.782 0 0 1 0-5.562 2.782 2.782 0 0 1 0 5.562z"></path><path d="M90.143 0c-5.438 0-10.641 2.663-13.781 7.138a15.99 15.99 0 0 0-8.463-2.421c-6.41 0-12.094 3.749-14.633 9.552 2.66-1.569 5.803-2.54 9.067-2.54 3.871 0 7.134 1.089 10.397 3.385 2.783 2.06 4.476 5.202 4.476 8.709v.121c-.122 4.835-1.207 9.912-3.144 14.387-3.992 8.705-11.729 14.753-21.28 16.324l-3.871.847c-.604-1.691-.967-3.507-.967-5.32 0-2.539.238-3.867 1.211-6.166C43.47 47.16 39.722 52.6 38.632 59.13l-11.605 7.134c11.002 4.961 18.137 15.961 18.137 28.053 0 0-.24 3.023-.121 3.023 14.996-7.135 11.971-5.199 24.426-16.204 1.932-1.692 4.471-2.538 7.135-2.538 3.746 0 7.131 1.935 9.066 5.077v-.722c0-2.178 0-2.299-.604-4.355-1.332-3.988-4.717-6.77-8.463-7.98 5.924-9.674 8.219-16.443 9.309-27.687l.363-15.356-.363-11.851c-.119-.364-.119-.726-.119-.968 0-3.99 2.055-7.499 5.561-9.434 2.902-1.569 5.32-2.175 8.584-2.175C96.916.971 93.896 0 90.143 0z"></path></g><!----></svg>